<?xml version="1.0" encoding="UTF-8"?>
<svg id="Ebene_1" data-name="Ebene 1" xmlns="http://www.w3.org/2000/svg" viewBox="0 0 60 60">
  <defs>
    <style>
      .cls-1 {
        fill: #8a8a8a;
        stroke-width: 0px;
      }
    </style>
  </defs>
  <path class="cls-1" d="m30,0C13.43,0,0,13.43,0,30s13.43,30,30,30,30-13.43,30-30S46.57,0,30,0m10,40.33v5.67h-20c.22-2.15.86-4.18,1.95-6.1,1.08-1.92,3.22-4.47,6.42-7.64,2.57-2.56,4.15-4.3,4.73-5.22.78-1.26,1.18-2.51,1.18-3.74,0-1.36-.34-2.41-1.03-3.14s-1.63-1.1-2.83-1.1-2.14.39-2.84,1.15c-.7.77-1.11,2.05-1.22,3.83l-5.69-.61c.34-3.36,1.4-5.77,3.19-7.24,1.79-1.46,4.02-2.19,6.7-2.19,2.94,0,5.25.85,6.92,2.54s2.52,3.81,2.52,6.33c0,1.43-.24,2.8-.72,4.1-.48,1.3-1.24,2.66-2.28,4.08-.69.94-1.94,2.3-3.74,4.06-1.8,1.77-2.94,2.94-3.42,3.52-.48.58-.87,1.15-1.17,1.69h11.33Z"/>
</svg>