<?xml version="1.0" encoding="UTF-8" standalone="no"?>
<svg
   id="Ebene_1"
   data-name="Ebene 1"
   viewBox="0 0 60 60"
   version="1.1"
   sodipodi:docname="3_blue.svg"
   inkscape:version="1.3.2 (091e20e, 2023-11-25, custom)"
   xmlns:inkscape="http://www.inkscape.org/namespaces/inkscape"
   xmlns:sodipodi="http://sodipodi.sourceforge.net/DTD/sodipodi-0.dtd"
   xmlns="http://www.w3.org/2000/svg"
   xmlns:svg="http://www.w3.org/2000/svg">
  <sodipodi:namedview
     id="namedview1"
     pagecolor="#ffffff"
     bordercolor="#000000"
     borderopacity="0.25"
     inkscape:showpageshadow="2"
     inkscape:pageopacity="0.0"
     inkscape:pagecheckerboard="0"
     inkscape:deskcolor="#d1d1d1"
     inkscape:zoom="14.933333"
     inkscape:cx="30.000001"
     inkscape:cy="30.000001"
     inkscape:window-width="1920"
     inkscape:window-height="1134"
     inkscape:window-x="2392"
     inkscape:window-y="-8"
     inkscape:window-maximized="1"
     inkscape:current-layer="Ebene_1" />
  <defs
     id="defs1">
    <style
       id="style1">
      .cls-1 {
        fill: #b3b3b3;
        stroke-width: 0px;
      }
    </style>
  </defs>
  <path
     class="cls-1"
     d="m30,0C13.43,0,0,13.43,0,30s13.43,30,30,30,30-13.43,30-30S46.57,0,30,0m7.1,43.09c-1.93,1.94-4.33,2.91-7.21,2.91-2.72,0-4.98-.82-6.78-2.45-1.79-1.63-2.83-3.77-3.12-6.4l5.59-.71c.18,1.48.66,2.62,1.44,3.4s1.73,1.18,2.83,1.18c1.19,0,2.19-.47,3.01-1.41.81-.94,1.22-2.21,1.22-3.81,0-1.51-.39-2.71-1.17-3.59-.78-.88-1.73-1.32-2.85-1.32-.74,0-1.62.15-2.65.45l.64-4.9c1.56.04,2.75-.31,3.57-1.06s1.23-1.74,1.23-2.98c0-1.06-.3-1.9-.9-2.52-.6-.63-1.4-.94-2.4-.94s-1.83.35-2.52,1.07-1.12,1.75-1.27,3.12l-5.32-.94c.37-1.9.93-3.41,1.67-4.54.75-1.13,1.78-2.02,3.12-2.67,1.33-.65,2.83-.97,4.48-.97,2.83,0,5.11.94,6.82,2.82,1.41,1.54,2.12,3.27,2.12,5.22,0,2.75-1.44,4.94-4.33,6.58,1.72.39,3.1,1.25,4.14,2.59,1.03,1.34,1.55,2.96,1.55,4.85,0,2.75-.97,5.09-2.9,7.03"
     id="path1"
     style="fill:#3a629b;fill-opacity:1" />
</svg>
